<?xml version="1.0" encoding="UTF-8" standalone="no"?>
<!-- Created with Inkscape (http://www.inkscape.org/) -->

<svg
   width="210mm"
   height="297mm"
   viewBox="0 0 210 297"
   version="1.1"
   id="svg5"
   inkscape:version="1.2-dev (24e53ad8, 2021-10-27)"
   sodipodi:docname="logo.svg"
   xmlns:inkscape="http://www.inkscape.org/namespaces/inkscape"
   xmlns:sodipodi="http://sodipodi.sourceforge.net/DTD/sodipodi-0.dtd"
   xmlns="http://www.w3.org/2000/svg"
   xmlns:svg="http://www.w3.org/2000/svg">
  <sodipodi:namedview
     id="namedview7"
     pagecolor="#ffffff"
     bordercolor="#000000"
     borderopacity="0.25"
     inkscape:pageshadow="2"
     inkscape:pageopacity="0.0"
     inkscape:pagecheckerboard="0"
     inkscape:blackoutopacity="0.0"
     inkscape:document-units="mm"
     showgrid="false"
     inkscape:zoom="1.0456808"
     inkscape:cx="40.643379"
     inkscape:cy="730.14635"
     inkscape:window-width="1920"
     inkscape:window-height="1013"
     inkscape:window-x="-9"
     inkscape:window-y="-9"
     inkscape:window-maximized="1"
     inkscape:current-layer="layer1" />
  <defs
     id="defs2">
    <inkscape:path-effect
       effect="bspline"
       id="path-effect13050"
       is_visible="true"
       lpeversion="1"
       weight="33.333333"
       steps="2"
       helper_size="0"
       apply_no_weight="true"
       apply_with_weight="true"
       only_selected="false" />
    <inkscape:path-effect
       effect="bspline"
       id="path-effect13046"
       is_visible="true"
       lpeversion="1"
       weight="33.333333"
       steps="2"
       helper_size="0"
       apply_no_weight="true"
       apply_with_weight="true"
       only_selected="false" />
    <inkscape:path-effect
       effect="bspline"
       id="path-effect13042"
       is_visible="true"
       lpeversion="1"
       weight="33.333333"
       steps="2"
       helper_size="0"
       apply_no_weight="true"
       apply_with_weight="true"
       only_selected="false" />
    <inkscape:path-effect
       effect="spiro"
       id="path-effect7376"
       is_visible="true"
       lpeversion="1" />
    <inkscape:path-effect
       effect="spiro"
       id="path-effect7370"
       is_visible="true"
       lpeversion="1" />
    <inkscape:path-effect
       effect="spiro"
       id="path-effect7156"
       is_visible="true"
       lpeversion="1" />
    <inkscape:path-effect
       effect="spiro"
       id="path-effect7152"
       is_visible="true"
       lpeversion="1" />
  </defs>
  <g
     inkscape:label="Layer 1"
     inkscape:groupmode="layer"
     id="layer1">
    <path
       sodipodi:type="star"
       style="opacity:1;fill:#ff0000;fill-opacity:1;stroke:none;stroke-width:1.4"
       id="path15107"
       inkscape:flatsided="true"
       sodipodi:sides="6"
       sodipodi:cx="-420.60678"
       sodipodi:cy="315.11697"
       sodipodi:r1="159.21555"
       sodipodi:r2="137.8847"
       sodipodi:arg1="0.52359878"
       sodipodi:arg2="1.0471976"
       inkscape:rounded="0.03"
       inkscape:randomized="0"
       d="m -282.72207,394.72475 c -2.38824,4.13654 -133.10825,79.60777 -137.88471,79.60777 -4.77647,0 -135.49648,-75.47123 -137.88471,-79.60777 -2.38823,-4.13655 -2.38823,-155.07901 0,-159.21555 2.38824,-4.13654 133.10824,-79.60777 137.88471,-79.60777 4.77647,0 135.49647,75.47123 137.88471,79.60777 2.38823,4.13654 2.38823,155.07901 0,159.21555 z"
       transform="matrix(0.25863736,0,0,0.25863736,-53.79301,28.363048)"
       inkscape:transform-center-x="-3.0800559e-06"
       inkscape:transform-center-y="-1.2740625e-06" />
    <path
       id="path14897"
       style="opacity:1;fill:#ff0000;fill-opacity:1;stroke:none;stroke-width:0.196704"
       inkscape:transform-center-x="-4.2119959e-05"
       d="m 36.754482,93.279525 11.73523,6.70154 -11.76807,-16.08263 c -0.0192,3.15437 -0.008,6.63113 0.0328,9.38109 z" />
    <path
       id="path15118"
       style="opacity:1;fill:#5c0000;fill-opacity:1;stroke:none;stroke-width:0.362093"
       inkscape:transform-center-x="-3.0800559e-06"
       inkscape:transform-center-y="-1.2740625e-06"
       d="m 70.986097,125.42804 0.219625,-10.30945 -24.15873,-32.889975 23.87761,13.63534 -0.02377,-10.62364 -34.06406,-19.524901 c -0.15355,2.36946 -0.24635,7.660371 -0.28267,13.625001 l 21.66275,29.604915 -21.60229,-12.336195 c 0.0747,4.989065 0.2014,8.659475 0.38396,8.975675 0.545577,0.94497 26.97072,16.27494 33.987575,19.84323 z" />
    <path
       id="path15112"
       style="opacity:1;fill:#ff0000;fill-opacity:1;stroke:none;stroke-width:0.268356"
       inkscape:transform-center-x="-2.0800559e-06"
       d="m 63.481797,48.593003 c -3.856242,2.144013 -9.002941,5.101493 -13.25366,7.610726 l 9.025862,5.164968 13.098937,-7.699197 z" />
    <path
       id="path15110"
       style="opacity:1;fill:#5c0000;fill-opacity:1;stroke:none;stroke-width:0.362093"
       inkscape:transform-center-x="-3.0800559e-06"
       inkscape:transform-center-y="-1.2740625e-06"
       d="m 65.196783,47.163032 11.969813,6.84971 -17.674376,10.38851 -12.178582,-6.96908 c -4.023339,2.37501 -7.429172,4.43806 -9.132772,5.56503 l 33.793282,19.057243 9.257832,-5.21364 -15.528251,-8.885243 17.674374,-10.38852 15.911689,9.10487 7.235218,-4.07468 c -7.076005,-4.54464 -32.789742,-19.31045 -33.864599,-19.31045 -0.350705,0 -3.367243,1.59872 -7.463628,3.87625 z" />
    <g
       id="g11204"
       style="opacity:0.602113"
       transform="translate(120.23133,-35.425301)">
      <path
         sodipodi:type="star"
         style="fill:none;stroke:#5c0000;stroke-width:1.4"
         id="path861"
         inkscape:flatsided="true"
         sodipodi:sides="6"
         sodipodi:cx="256.96234"
         sodipodi:cy="288.0683"
         sodipodi:r1="173.49142"
         sodipodi:r2="150.24799"
         sodipodi:arg1="1.0471976"
         sodipodi:arg2="1.5707963"
         inkscape:rounded="0.03"
         inkscape:randomized="0"
         transform="matrix(0.22913589,-0.13229166,0.13229166,0.22913589,-29.000376,44.205261)"
         d="m 343.70805,438.31628 c -4.50744,2.60237 -168.98399,2.60237 -173.49143,0 -4.50744,-2.60238 -86.745704,-145.04325 -86.745703,-150.24799 0,-5.20474 82.238283,-147.64561 86.745723,-150.24798 4.50744,-2.60237 168.98398,-2.60236 173.49142,1e-5 4.50744,2.60237 86.74571,145.04324 86.74571,150.24799 0,5.20474 -82.23828,147.6456 -86.74572,150.24797 z" />
      <path
         style="opacity:0.288732;fill:none;stroke:#5c0000;stroke-width:0.370417"
         d="M 28.234843,53.266599 67.987952,76.21807 107.74107,53.266606"
         id="path2522" />
      <path
         style="opacity:0.288732;fill:none;stroke:#5c0000;stroke-width:0.370417"
         d="m 67.987952,76.21807 -3e-6,45.90294"
         id="path2795" />
      <path
         style="opacity:0.288732;fill:none;stroke:#5c0000;stroke-width:0.370417"
         d="M 28.142239,55.970008 67.987952,78.69076 107.83367,55.412466"
         id="path6796" />
      <path
         style="opacity:0.288732;fill:none;stroke:#5c0000;stroke-width:0.370417"
         d="m 29.749636,56.886575 -0.01921,43.311305"
         id="path6798" />
      <path
         style="opacity:0.288732;fill:none;stroke:#5c0000;stroke-width:0.370417"
         d="m 106.41009,56.358432 0.35783,43.387049"
         id="path6800" />
      <path
         style="opacity:0.288732;fill:none;stroke:#5c0000;stroke-width:0.370417"
         d="m 69.547602,77.779596 0.203496,43.563324"
         id="path6802" />
      <path
         style="opacity:0.288732;fill:none;stroke:#5c0000;stroke-width:0.370417"
         d="m 66.198794,77.778731 0.09721,43.600179"
         id="path6804" />
      <path
         style="opacity:0.288732;fill:none;stroke:#5c0000;stroke-width:0.370417"
         d="M 69.936304,119.77807 106.95312,98.13524"
         id="path6806" />
      <path
         style="opacity:0.288732;fill:none;stroke:#5c0000;stroke-width:0.370417"
         d="M 66.247398,119.6808 29.616278,98.531816"
         id="path6808" />
      <path
         style="opacity:0.288732;fill:none;stroke:#5c0000;stroke-width:0.370417"
         d="M 29.934844,54.210598 69.645119,30.869046"
         id="path7081" />
      <path
         style="opacity:0.288732;fill:none;stroke:#5c0000;stroke-width:0.370417"
         d="m 68.17316,31.43835 38.39027,22.508164"
         id="path7083" />
      <path
         style="opacity:0.288732;fill:none;stroke:#5c0000;stroke-width:0.370417"
         d="M 31.578613,53.106203 69.936304,75.055121"
         id="path7150"
         inkscape:path-effect="#path-effect7152"
         inkscape:original-d="m 31.578613,53.106203 c 12.786162,7.31657 25.572058,14.632876 38.357691,21.948918" />
      <path
         style="opacity:0.288732;fill:none;stroke:#5c0000;stroke-width:0.370417"
         d="M 67.802741,73.534335 104.61467,52.803961"
         id="path7154"
         inkscape:path-effect="#path-effect7156"
         inkscape:original-d="M 67.802741,73.534335 C 80.07365,66.624477 92.344294,59.714351 104.61467,52.803961" />
      <path
         style="opacity:0.288732;fill:none;stroke:#5c0000;stroke-width:0.370417"
         d="M 41.015981,47.695606 79.373672,69.644524"
         id="path7366"
         inkscape:path-effect="#path-effect7370"
         inkscape:original-d="m 41.015981,47.695606 c 12.786162,7.31657 25.572058,14.632876 38.357691,21.948918" />
      <path
         style="opacity:0.288732;fill:none;stroke:#5c0000;stroke-width:0.370417"
         d="M 58.850605,37.398786 97.208296,59.347704"
         id="path7372"
         inkscape:path-effect="#path-effect7376"
         inkscape:original-d="m 58.850605,37.398786 c 12.786162,7.31657 25.572058,14.632876 38.357691,21.948918" />
      <path
         style="opacity:0.288732;fill:none;stroke:#5c0000;stroke-width:0.370417"
         d="M 44.339925,62.335944 84.0502,38.994392"
         id="path7378" />
      <path
         style="opacity:0.288732;fill:none;stroke:#5c0000;stroke-width:0.370417"
         d="M 50.851311,65.713991 90.561586,42.372439"
         id="path7380" />
      <path
         style="opacity:0.288732;fill:none;stroke:#5c0000;stroke-width:0.370417"
         d="M 27.764327,66.440198 68.079694,89.46287 108.22174,66.033616"
         id="path8393"
         sodipodi:nodetypes="ccc" />
      <path
         style="opacity:0.288732;fill:none;stroke:#5c0000;stroke-width:0.370417"
         d="M 27.764327,86.77846 68.079694,109.80114 108.22174,86.371878"
         id="path9322"
         sodipodi:nodetypes="ccc" />
      <path
         style="opacity:0.288732;fill:none;stroke:#5c0000;stroke-width:0.370417"
         d="M 42.371853,61.428605 42.278,108.24397 42.449292,107.95136"
         id="path9387" />
      <path
         style="opacity:0.288732;fill:none;stroke:#5c0000;stroke-width:0.370417"
         d="m 97.208294,59.347703 0.09199,46.416727"
         id="path9389" />
      <path
         style="opacity:0.288732;fill:none;stroke:#5c0000;stroke-width:0.370417"
         d="M 42.345112,74.766764 67.987949,102.85464 97.234254,72.446558"
         id="path9391" />
      <path
         style="opacity:0.288732;fill:none;stroke:#5c0000;stroke-width:0.370417"
         d="M 29.742434,73.124048 53.514778,101.48363"
         id="path9393"
         sodipodi:nodetypes="cc" />
      <path
         style="opacity:0.288732;fill:none;stroke:#5c0000;stroke-width:0.370417"
         d="M 83.061596,101.03731 106.54725,72.98945"
         id="path9397"
         sodipodi:nodetypes="cc" />
      <ellipse
         style="opacity:0.288732;fill:none;stroke:#5c0000;stroke-width:0.370417"
         id="path10549"
         cx="61.181576"
         cy="80.16925"
         rx="4.8307228"
         ry="4.48035" />
      <ellipse
         style="opacity:0.288732;fill:none;stroke:#5c0000;stroke-width:0.370417"
         id="ellipse10759"
         cx="74.410751"
         cy="80.16925"
         rx="4.8307228"
         ry="4.48035" />
      <ellipse
         style="opacity:0.288732;fill:none;stroke:#5c0000;stroke-width:0.370417"
         id="ellipse10761"
         cx="101.92744"
         cy="95.515099"
         rx="4.8307228"
         ry="4.48035" />
      <ellipse
         style="opacity:0.288732;fill:none;stroke:#5c0000;stroke-width:0.370417"
         id="ellipse10763"
         cx="34.723213"
         cy="96.044266"
         rx="4.8307228"
         ry="4.48035" />
      <ellipse
         style="opacity:0.288732;fill:none;stroke:#5c0000;stroke-width:0.228932"
         id="ellipse11163"
         cx="67.869499"
         cy="59.186176"
         rx="2.9855762"
         ry="2.769032" />
      <ellipse
         style="opacity:0.288732;fill:none;stroke:#5c0000;stroke-width:0.228932"
         id="ellipse11165"
         cx="79.511177"
         cy="52.307003"
         rx="2.9855762"
         ry="2.769032" />
      <ellipse
         style="opacity:0.288732;fill:none;stroke:#5c0000;stroke-width:0.228932"
         id="ellipse11167"
         cx="55.412918"
         cy="52.307003"
         rx="2.9855762"
         ry="2.769032" />
      <ellipse
         style="opacity:0.288732;fill:none;stroke:#5c0000;stroke-width:0.228932"
         id="ellipse11169"
         cx="67.583763"
         cy="45.42783"
         rx="2.9855762"
         ry="2.769032" />
    </g>
    <path
       style="opacity:1;fill:#5c0000;fill-opacity:1;stroke:none;stroke-width:0.370417"
       d="m 72.66213,85.770535 36.86249,-21.421171 0.26367,12.456111 -23.612168,32.222765 23.603518,-13.756885 0.0905,10.970305 L 73.050832,127.769 72.771156,115.94227 100.34878,80.437495 72.712564,96.567615 Z"
       id="path13262"
       sodipodi:nodetypes="ccccccccccc" />
    <path
       style="opacity:1;fill:#5c0000;fill-opacity:1;stroke:none;stroke-width:0.370417"
       d="m -199.86296,89.43593 9.43869,-5.409838 14.30381,8.184878 17.67401,-10.388722 -14.14452,-8.093736 9.57458,-5.812671 14.13225,8.285718 22.05724,12.932129 -9.49638,5.347812 -15.91167,-9.104929 -17.67402,10.388721 15.5279,8.885328 -9.25776,5.21345 z"
       id="path14011" />
    <path
       style="opacity:1;fill:#5c0000;fill-opacity:1;stroke:none;stroke-width:0.370417"
       d="m -161.89397,114.10933 36.86249,-21.421171 0.26367,12.456111 -23.61217,32.22277 23.60352,-13.75689 0.0905,10.97031 -36.81929,21.52734 -0.27968,-11.82673 27.57763,-35.50478 -27.63622,16.13012 z"
       id="path14013"
       sodipodi:nodetypes="ccccccccccc" />
    <path
       style="opacity:1;fill:#5c0000;fill-opacity:1;stroke:none;stroke-width:0.370417"
       d="m -201.69194,93.216302 36.44916,20.892158 0.0237,10.62355 -23.87737,-13.63552 24.15837,32.88988 -0.25612,12.02416 -36.63112,-21.14899 0.1196,-10.62747 23.7789,13.57929 -23.89885,-32.661 z"
       id="path14015"
       sodipodi:nodetypes="ccccccccccc" />
    <path
       id="path15121"
       style="opacity:1;fill:#ff0000;fill-opacity:1;stroke:none;stroke-width:0.196704"
       inkscape:transform-center-x="3.9791683e-05"
       d="m 108.7213,92.625505 -11.735222,6.70154 11.768062,-16.08263 c 0.0192,3.15437 0.008,6.63113 -0.0328,9.38109 z" />
    <path
       style="opacity:1;fill:#5c0000;fill-opacity:1;stroke:none;stroke-width:0.370417"
       d="m -128.22602,191.00131 18.05784,-10.16889"
       id="path22057" />
    <path
       style="opacity:1;fill:#ff0000;fill-opacity:1;stroke:none;stroke-width:0.376337"
       d="m 53.879913,88.718155 18.041852,10.52676 20.57909,-12.00419 -20.147918,24.468585 z"
       id="path27657"
       sodipodi:nodetypes="ccccc" />
    <path
       id="path28015"
       style="opacity:1;fill:#ff0000;fill-opacity:1;stroke:none;stroke-width:0.285893"
       inkscape:transform-center-x="-2.200256e-06"
       d="m 83.401674,59.70551 c -3.95537,2.372397 -9.234371,5.644914 -13.594358,8.421436 l 9.257881,5.715149 13.435658,-8.51933 z"
       inkscape:transform-center-y="-1.2756943e-06" />
    <path
       id="path28017"
       style="opacity:1;fill:#ff0000;fill-opacity:1;stroke:none;stroke-width:0.285893"
       inkscape:transform-center-x="-2.200256e-06"
       d="m 87.105843,61.822178 c -3.95537,2.372397 -9.234371,5.644914 -13.594358,8.421436 l 9.257881,5.715161 13.435658,-8.519342 z"
       inkscape:transform-center-y="-1.2756943e-06" />
    <path
       id="path28466"
       style="opacity:1;fill:#ff0000;fill-opacity:1;stroke:none;stroke-width:0.196704"
       inkscape:transform-center-x="-4.2119959e-05"
       d="m 38.152888,185.38061 11.73523,6.70154 -11.76807,-16.08263 c -0.0192,3.15437 -0.008,6.63113 0.0328,9.38109 z" />
    <path
       id="path28470"
       style="opacity:1;fill:#ff0000;fill-opacity:1;stroke:none;stroke-width:0.268356"
       inkscape:transform-center-x="-2.0800559e-06"
       d="m 64.880203,140.69409 c -3.856242,2.14401 -9.002941,5.10149 -13.25366,7.61072 l 9.025862,5.16497 13.098937,-7.6992 z" />
    <g
       id="g28487">
      <path
         id="path28468"
         style="opacity:1;fill:#5c0000;fill-opacity:1;stroke:none;stroke-width:0.362093"
         inkscape:transform-center-x="-3.0800559e-06"
         inkscape:transform-center-y="-1.2740625e-06"
         d="m 72.384503,217.52912 0.219625,-10.30945 -24.15873,-32.88997 23.87761,13.63534 -0.02377,-10.62364 -34.06406,-19.5249 c -0.15355,2.36946 -0.24635,7.66037 -0.28267,13.625 l 21.66275,29.60491 -21.60229,-12.33619 c 0.0747,4.98906 0.2014,8.65947 0.38396,8.97567 0.545577,0.94497 26.97072,16.27494 33.987575,19.84323 z" />
      <path
         id="path28472"
         style="opacity:1;fill:#5c0000;fill-opacity:1;stroke:none;stroke-width:0.362093"
         inkscape:transform-center-x="-3.0800559e-06"
         inkscape:transform-center-y="-1.2740625e-06"
         d="m 66.595189,139.26412 11.969813,6.84971 -17.674376,10.38851 -12.178582,-6.96908 c -4.023339,2.37501 -7.429172,4.43806 -9.132772,5.56503 l 33.793282,19.05724 9.257832,-5.21364 -15.528251,-8.88524 17.674374,-10.38852 15.911691,9.10487 7.23522,-4.07468 c -7.07601,-4.54464 -32.789746,-19.31045 -33.864603,-19.31045 -0.350705,0 -3.367243,1.59872 -7.463628,3.87625 z" />
      <path
         style="opacity:1;fill:#5c0000;fill-opacity:1;stroke:none;stroke-width:0.370417"
         d="m 74.060536,177.87162 36.862494,-21.42117 0.26367,12.45611 -23.612172,32.22276 23.603522,-13.75688 0.0905,10.9703 -36.819312,21.52734 -0.279676,-11.82673 27.577628,-35.50477 -27.63622,16.13012 z"
         id="path28474"
         sodipodi:nodetypes="ccccccccccc" />
    </g>
    <path
       id="path28476"
       style="opacity:1;fill:#ff0000;fill-opacity:1;stroke:none;stroke-width:0.196704"
       inkscape:transform-center-x="3.9791683e-05"
       d="m 110.11971,184.72659 -11.735226,6.70154 11.768066,-16.08263 c 0.0192,3.15437 0.008,6.63113 -0.0328,9.38109 z" />
    <path
       style="opacity:1;fill:#ff0000;fill-opacity:1;stroke:none;stroke-width:0.376337"
       d="M 55.278319,180.81924 73.320171,191.346 93.899261,179.34181 73.751343,203.81039 Z"
       id="path28478"
       sodipodi:nodetypes="ccccc" />
    <path
       id="path28480"
       style="opacity:1;fill:#ff0000;fill-opacity:1;stroke:none;stroke-width:0.285893"
       inkscape:transform-center-x="-2.200256e-06"
       d="m 84.80008,151.80659 c -3.95537,2.3724 -9.234371,5.64492 -13.594358,8.42144 l 9.257881,5.71515 13.435658,-8.51933 z"
       inkscape:transform-center-y="-1.2756943e-06" />
    <path
       id="path28482"
       style="opacity:1;fill:#ff0000;fill-opacity:1;stroke:none;stroke-width:0.285893"
       inkscape:transform-center-x="-2.200256e-06"
       d="m 88.504249,153.92326 c -3.95537,2.3724 -9.234371,5.64492 -13.594358,8.42144 l 9.257881,5.71516 13.435658,-8.51934 z"
       inkscape:transform-center-y="-1.2756943e-06" />
  </g>
</svg>
