<?xml version="1.0" encoding="UTF-8" standalone="no"?>
<!-- Created with Inkscape (http://www.inkscape.org/) -->

<svg
   width="210mm"
   height="297mm"
   viewBox="0 0 210 297"
   version="1.1"
   id="svg5"
   inkscape:export-filename="D:\belajarjs\webPribadi\img\wave.png"
   inkscape:export-xdpi="96"
   inkscape:export-ydpi="96"
   inkscape:version="1.2-dev (24e53ad8, 2021-10-27)"
   sodipodi:docname="wave.svg"
   xmlns:inkscape="http://www.inkscape.org/namespaces/inkscape"
   xmlns:sodipodi="http://sodipodi.sourceforge.net/DTD/sodipodi-0.dtd"
   xmlns="http://www.w3.org/2000/svg"
   xmlns:svg="http://www.w3.org/2000/svg">
  <defs
     id="defs2" />
  <sodipodi:namedview
     id="namedview7"
     pagecolor="#ffffff"
     bordercolor="#000000"
     borderopacity="0.25"
     inkscape:pageshadow="2"
     inkscape:pageopacity="0.0"
     inkscape:pagecheckerboard="0"
     inkscape:blackoutopacity="0.0"
     inkscape:document-units="mm"
     showgrid="false"
     inkscape:zoom="0.35723204"
     inkscape:cx="495.47627"
     inkscape:cy="422.69444"
     inkscape:window-width="1920"
     inkscape:window-height="1000"
     inkscape:window-x="-11"
     inkscape:window-y="-11"
     inkscape:window-maximized="1"
     inkscape:current-layer="layer1" />
  <g
     inkscape:label="Layer 1"
     inkscape:groupmode="layer"
     id="layer1">
    <<svg xmlns="http://www.w3.org/2000/svg" viewBox="0 0 1440 320"><path fill="rgb(255, 249, 195)" fill-opacity="1" d="M0,128L48,149.3C96,171,192,213,288,218.7C384,224,480,192,576,186.7C672,181,768,203,864,181.3C960,160,1056,96,1152,85.3C1248,75,1344,117,1392,138.7L1440,160L1440,320L1392,320C1344,320,1248,320,1152,320C1056,320,960,320,864,320C768,320,672,320,576,320C480,320,384,320,288,320C192,320,96,320,48,320L0,320Z"></path></svg> />
    <path
       fill="#fff9c3"
       fill-opacity="1"
       d="m -80.88404,-106.19548 12.7,5.63563 c 12.7,5.741452 38.1,16.853952 63.5000001,18.362082 25.3999999,1.40229 50.7999999,-7.06438 76.2000019,-8.46667 25.4,-1.50812 50.799998,4.31271 76.199998,-1.42875 25.4,-5.63562 50.8,-22.568962 76.2,-25.400002 25.4,-2.72521 50.8,8.38729 63.5,14.12875 l 12.7,5.635632 v 74.08333 h -12.7 -63.5 -76.2 -76.199998 -76.2000019 -63.5000001 -12.7 z"
       id="path2892"
       style="stroke-width:0.264583"
       sodipodi:nodetypes="ccccccccccccccccc" />
  </g>
</svg>
